<svg width="221" height="221" viewBox="0 0 221 221" fill="none" xmlns="http://www.w3.org/2000/svg">
<path fill-rule="evenodd" clip-rule="evenodd" d="M21.8589 142.873C19.5599 142.873 17.6441 142.162 16.1116 140.739C14.5787 139.315 13.8124 137.566 13.8125 135.49C13.8125 133.356 14.601 131.607 16.1779 130.243C17.7548 128.879 19.7222 128.197 22.0799 128.197C24.4673 128.197 26.42 128.886 27.9379 130.265C29.4559 131.644 30.2148 133.386 30.2148 135.491C30.2148 137.655 29.4411 139.426 27.8937 140.805C26.3464 142.184 24.3348 142.873 21.8589 142.873ZM98.8457 141.794H84.3924L58.1903 101.791C56.6534 99.4529 55.5894 97.6918 54.9984 96.5079H54.8209C55.0573 98.7572 55.1755 102.191 55.1755 106.808V141.794H41.6533V78.127H57.0819L82.3087 116.887C83.4615 118.633 84.5254 120.365 85.5007 122.081H85.6781C85.4417 120.601 85.3235 117.686 85.3235 113.335V78.127H98.8457V141.794ZM151.506 141.794H113.306V78.127H150.04V89.8037H127.653V103.967H148.485V115.599H127.653V130.162H151.506V141.794ZM207.188 89.8037H189.069V141.794H174.716V89.8037H156.686V78.127H207.188V89.8037Z" fill="#FFD500" fill-opacity="0.88"/>
</svg>
