<svg width="128" height="128" viewBox="0 0 128 128" fill="none" xmlns="http://www.w3.org/2000/svg">
<g clip-path="url(#clip0_77_8)">
<path d="M35.1999 34.9L26.8999 26.6V86.3L26.9999 89.1C26.9999 90.4 27.1999 91.9 27.6999 93.4L93.2999 116.5L109.6 109.3L35.1999 34.9Z" fill="#C4A700"/>
<path d="M109.6 109.3L93.2999 116.5L27.8999 93.4C29.1999 98.2 31.8999 103.5 34.8999 106.6L56.1999 127.8L103.8 127.9L109.6 109.3Z" fill="#FFD500"/>
<path d="M1.69989 65.1C-0.400115 67.3 0.699885 72 3.99989 75.5L18.6999 90.3L27.8999 93.6C27.5999 92.1 27.1999 90.6 27.1999 89.3L27.0999 86.5L26.8999 26.7M109.6 109.3L116.8 92.9L93.7999 27.3C92.2999 27 90.7999 26.7 89.4999 26.6L86.5999 26.5L26.9999 26.6" fill="#FFD700"/>
<path d="M109.6 109.3L127.3 103.5V54.8L106.9 34.3C103.9 31.3 98.6001 28.5 93.7001 27.3L116.8 92.9" fill="#C4A700"/>
<path d="M90.4999 18.2L75.6999 3.50001C72.2999 0.100014 67.6999 -0.899985 65.2999 1.20001L26.8999 26.6H86.3999L89.2999 26.7C90.5999 26.7 92.0999 26.9 93.5999 27.4L90.4999 18.2Z" fill="#C4A700"/>
</g>
<defs>
<clipPath id="clip0_77_8">
<rect width="128" height="128" fill="white"/>
</clipPath>
</defs>
</svg>
